<svg xmlns="http://www.w3.org/2000/svg" viewBox="0 0 105.289 38.532">
    <defs>
        <style>
            .cls-1{fill:#00c7f7;stroke:rgba(0,0,0,0)}
        </style>
    </defs>
    <g id="logo" transform="translate(-685.669 -54.693)">
        <path id="Union_7" d="M9712.685-2784.06v-14.793a45.67 45.67 0 0 1 .534-7.539 14.363 14.363 0 0 1 2.069-5.469 12.39 12.39 0 0 1 11.154-5.919 12.594 12.594 0 0 1 7.557 2.389 11.416 11.416 0 0 1 4.422 5.954h.214a18.234 18.234 0 0 1 2.513-6.418 12.515 12.515 0 0 1 4.527-4.223 12.932 12.932 0 0 1 6.324-1.514 15.509 15.509 0 0 1 5.045.784 13.536 13.536 0 0 1 3.9 2.013 17.551 17.551 0 0 1 3.064 3.082 14.668 14.668 0 0 1 2.764 5.777 35.027 35.027 0 0 1 .8 8.09v17.787zm34.61-28.639a9.273 9.273 0 0 0-3.171 3.048 10 10 0 0 0-1.623 4.1 34.742 34.742 0 0 0-.373 5.526v8.269h19.139v-8.269c0-1.475-.022-2.655-.069-3.547a16.206 16.206 0 0 0-.519-3.083 9.26 9.26 0 0 0-1.3-2.994 8.992 8.992 0 0 0-3.262-3.048 9.516 9.516 0 0 0-4.472-.981 8.92 8.92 0 0 0-4.35.978zm-27.017 6.29a10.8 10.8 0 0 0-.855 2.067 13.1 13.1 0 0 0-.465 2.353 28.923 28.923 0 0 0-.143 3.136v7.094h17.394v-6.452a29.709 29.709 0 0 0-.337-4.97 7.673 7.673 0 0 0-1.3-3.228 12.943 12.943 0 0 0-1.62-1.782 7.528 7.528 0 0 0-2.283-1.283 9.175 9.175 0 0 0-3.331-.57q-5.029-.001-7.06 3.635zm53.8 21.781a6.485 6.485 0 0 1-2.129-1.172 5.165 5.165 0 0 1-1.421-1.967 6.8 6.8 0 0 1-.511-2.7 6.929 6.929 0 0 1 .344-2.227 5.261 5.261 0 0 1 .964-1.752 5.82 5.82 0 0 1 1.478-1.246 6.808 6.808 0 0 1 1.87-.764 8.948 8.948 0 0 1 2.15-.253 7.155 7.155 0 0 1 3.3.73 5.377 5.377 0 0 1 2.234 2.094 6.093 6.093 0 0 1 .8 3.151c0 .209-.01.438-.024.686s-.029.44-.045.583l-.021.214h-7.849a1.393 1.393 0 0 0 .295.668 1.48 1.48 0 0 0 .575.416 3.088 3.088 0 0 0 .69.2 4.716 4.716 0 0 0 .74.057 6.788 6.788 0 0 0 1.669-.226 5.106 5.106 0 0 0 1.61-.718l2 2.583a1.426 1.426 0 0 1-.123.1c-.209.172-.391.315-.543.425a9.112 9.112 0 0 1-.8.489 6.793 6.793 0 0 1-1.158.516 10.318 10.318 0 0 1-1.5.359 10.835 10.835 0 0 1-1.937.165 8.288 8.288 0 0 1-2.653-.411zm1.893-8.613a1.375 1.375 0 0 0-.528.5 1.591 1.591 0 0 0-.224.73h3.053a1.449 1.449 0 0 0-.455-1.022 1.529 1.529 0 0 0-1.084-.393 1.534 1.534 0 0 0-.757.185zm9.09 8.731v-11.961h5.277l-.066 1.529a3.651 3.651 0 0 1 1.286-1.359 3.409 3.409 0 0 1 1.713-.406 3.565 3.565 0 0 1 .661.056 1.2 1.2 0 0 1 .394.123l.113.056-.227 4.8h-.245a3.411 3.411 0 0 0-1.517-.337 2.137 2.137 0 0 0-.949.209 1.8 1.8 0 0 0-.69.555 3.377 3.377 0 0 0-.473 2.043v4.7zm-82.247 0v-11.961h5.277v11.961zm-12.649 0v-16.184h5.277v11.838h5.514v4.346zm13.222-13.072a2.331 2.331 0 0 1-.762-1.826 2.308 2.308 0 0 1 .774-1.824 2.952 2.952 0 0 1 2.033-.686 2.962 2.962 0 0 1 2.055.686 2.339 2.339 0 0 1 .762 1.831 2.66 2.66 0 0 1-.194 1.032 2.185 2.185 0 0 1-.562.8 2.465 2.465 0 0 1-.893.5 3.723 3.723 0 0 1-1.167.175 2.971 2.971 0 0 1-2.042-.688z" class="cls-1" data-name="Union 7" transform="translate(-9004 2876.785)"/>
    </g>
</svg>
